PathFileType	4	(X/Y/Z)	/Users/itak/Documents/Research/Walk-IL/dataset/trc/00062_00006.trc
DataRate	CameraRate	NumFrames	NumMarkers	Units	OrigDataRate	OrigDataStartFrame	OrigNumFrames
100.000000	100.000000	4	53	mm	100.000000	0	693
Frame#	Time	RPSI			LPSI			L3			STRN			T10			C7			CLAV			RBAK			LBAK			LSHO			LUPA			LAEL			LAOL			LWTS			LWPS			LFRA			LIFD			LHPS			LHTS			RSHO			RUPA			RAEL			RAOL			RWTS			RWPS			RFRA			RIFD			RHTS			RHPS			RBHD			LFHD			RFHD			LBHD			LHIP			RHIP			RASI			LASI			LKNE			LTHI			LANK			LTIP			LTOE			LMT1			LMT5			LHEE			RKNE			RTHI			RANK			RTIP			RTOE			RMT1			RMT5			RHEE			
		X1	Y1	Z1	X2	Y2	Z2	X3	Y3	Z3	X4	Y4	Z4	X5	Y5	Z5	X6	Y6	Z6	X7	Y7	Z7	X8	Y8	Z8	X9	Y9	Z9	X10	Y10	Z10	X11	Y11	Z11	X12	Y12	Z12	X13	Y13	Z13	X14	Y14	Z14	X15	Y15	Z15	X16	Y16	Z16	X17	Y17	Z17	X18	Y18	Z18	X19	Y19	Z19	X20	Y20	Z20	X21	Y21	Z21	X22	Y22	Z22	X23	Y23	Z23	X24	Y24	Z24	X25	Y25	Z25	X26	Y26	Z26	X27	Y27	Z27	X28	Y28	Z28	X29	Y29	Z29	X30	Y30	Z30	X31	Y31	Z31	X32	Y32	Z32	X33	Y33	Z33	X34	Y34	Z34	X35	Y35	Z35	X36	Y36	Z36	X37	Y37	Z37	X38	Y38	Z38	X39	Y39	Z39	X40	Y40	Z40	X41	Y41	Z41	X42	Y42	Z42	X43	Y43	Z43	X44	Y44	Z44	X45	Y45	Z45	X46	Y46	Z46	X47	Y47	Z47	X48	Y48	Z48	X49	Y49	Z49	X50	Y50	Z50	X51	Y51	Z51	X52	Y52	Z52	X53	Y53	Z53	

1	0	-83.71432495117188	1039.638549804688	1273.8369140625	-108.5770492553711	1035.923095703125	1100.18896484375	-91.03057861328125	1084.1484375	1179.282592773438	152.0039215087891	1288.932006835938	1165.357666015625	-114.3010330200195	1218.006469726562	1170.926513671875	-62.07320404052734	1486.3828125	1159.324096679688	119.4118804931641	1402.883544921875	1161.67626953125	-118.7544403076172	1347.665649414062	1238.441162109375	-83.19609069824219	1445.0751953125	1058.923217773438	20.33792304992676	1448.44970703125	985.53076171875	8.742945671081543	1317.141723632812	914.49853515625	34.45719909667969	1103.36669921875	905.0072021484375	-27.04747581481934	1089.492309570312	993.5099487304688	111.4867782592773	854.7977294921875	954.3738403320312	52.97690582275391	854.2074584960938	893.9968872070312	49.84604644775391	995.2488403320312	894.0220336914062	101.4503784179688	668.9068603515625	961.5249633789062	77.90824127197266	769.7071533203125	892.2991333007812	125.2324447631836	770.5066528320312	945.3755493164062	4.502973079681396	1455.84716796875	1335.87841796875	-4.739899158477783	1386.512817382812	1399.81201171875	-28.42098808288574	1121.68408203125	1430.577880859375	-8.030729293823242	1097.649291992188	1336.26416015625	100.8307495117188	862.7386474609375	1417.086547851562	30.56123542785645	858.3272094726562	1467.6953125	-17.4658031463623	1045.516967773438	1441.348388671875	66.35322570800781	693.6588134765625	1394.904174804688	116.3414001464844	758.3776245117188	1426.681518554688	57.5997200012207	764.1351318359375	1478.802734375	-9.119148254394531	1678.841430664062	1091.646118164062	149.5982666015625	1691.585693359375	1237.400634765625	167.2329864501953	1697.126953125	1112.242919921875	-20.20654106140137	1664.884399414062	1228.206665039062	-14.42035579681396	966.75341796875	1003.106140136719	-13.73459148406982	967.748291015625	1347.486694335938	109.6829681396484	981.8527221679688	1315.671875	101.8444671630859	972.6925048828125	1045.384765625	15.65756034851074	500.8429870605469	1037.390502929688	-5.0838623046875	644.4089965820312	1005.569030761719	-75.11178588867188	51.75710296630859	1020.301818847656	-42.27463531494141	270.1861572265625	1013.896789550781	129.9705352783203	43.95731735229492	1005.762084960938	85.84317779541016	42.14220809936523	1063.606689453125	22.84642791748047	43.19675445556641	971.6441650390625	-120.5486145019531	47.74049758911133	1100.045776367188	37.44001770019531	518.6246337890625	1327.423706054688	61.58927536010742	790.5374755859375	1351.48193359375	-42.4387321472168	44.51240539550781	1333.472045898438	13.59963035583496	401.3646545410156	1337.100463867188	173.36328125	42.34507751464844	1287.61083984375	110.3288269042969	47.3991584777832	1251.035400390625	83.49275207519531	47.44568252563477	1345.428100585938	-91.25336456298828	45.90368270874023	1277.228637695312	
2	0.01	-83.58980560302734	1039.684692382812	1273.779907226562	-108.2840805053711	1035.9541015625	1100.212890625	-90.83761596679688	1084.22705078125	1179.208618164062	152.2468109130859	1288.84765625	1165.31494140625	-114.1319808959961	1218.122436523438	1170.859008789062	-61.7066535949707	1486.478637695312	1159.25439453125	119.6766967773438	1402.818725585938	1161.6337890625	-118.5111236572266	1347.75830078125	1238.351196289062	-82.85831451416016	1445.170532226562	1058.880126953125	20.68795967102051	1448.437744140625	985.4407348632812	8.654623031616211	1317.186767578125	914.3345947265625	33.21549224853516	1103.483032226562	904.5852661132812	-28.02036476135254	1089.721069335938	993.4190063476562	107.9219360351562	853.900634765625	952.0031127929688	49.25815200805664	854.5733032226562	891.7752075195312	47.55635070800781	995.486083984375	892.9429931640625	95.07308959960938	668.0592041015625	957.4769897460938	73.02651977539062	769.8255004882812	889.240478515625	120.4394989013672	769.4189453125	942.2760620117188	4.733733654022217	1455.878540039062	1335.828125	-4.659008502960205	1386.60595703125	1399.787719726562	-28.98525619506836	1121.87548828125	1430.575805664062	-8.538385391235352	1097.747924804688	1336.29443359375	99.13311767578125	862.4727172851562	1417.690307617188	28.70319557189941	858.4441528320312	1468.124633789062	-18.36783981323242	1045.806762695312	1441.389038085938	64.09414672851562	692.8960571289062	1396.106811523438	114.1763153076172	758.1605224609375	1427.449096679688	55.36183166503906	764.2796020507812	1479.485961914062	-8.856105804443359	1678.784912109375	1091.55224609375	150.0423431396484	1691.565307617188	1237.208374023438	167.4932250976562	1697.1142578125	1112.0947265625	-19.77485466003418	1664.900512695312	1228.205200195312	-14.28387260437012	966.7490844726562	1003.05859375	-13.54512977600098	967.7930908203125	1347.3525390625	109.8243179321289	981.8270874023438	1315.613159179688	101.9807586669922	972.638427734375	1045.32666015625	15.68030834197998	500.8232727050781	1037.368408203125	-4.967901229858398	644.390380859375	1005.536560058594	-75.11875915527344	51.75177001953125	1020.298583984375	-42.27365112304688	270.1839904785156	1013.8798828125	129.9766540527344	43.95024871826172	1005.757934570312	85.84100341796875	42.11574935913086	1063.60205078125	22.84429168701172	43.19743728637695	971.6396484375	-120.5439682006836	47.74225997924805	1100.047973632812	37.44721221923828	518.6256713867188	1327.379760742188	61.67037582397461	790.5411987304688	1351.387939453125	-42.43742752075195	44.51615905761719	1333.4736328125	13.62231349945068	401.3811340332031	1337.06982421875	173.3706207275391	42.34614181518555	1287.6162109375	110.3166732788086	47.38254547119141	1251.031616210938	83.49083709716797	47.45101165771484	1345.422119140625	-91.25544738769531	45.90883255004883	1277.219970703125	
3	0.02	-83.42643737792969	1039.73974609375	1273.705200195312	-107.9490432739258	1035.994384765625	1100.216796875	-90.5933837890625	1084.329711914062	1179.114990234375	152.5634613037109	1288.7412109375	1165.264038085938	-113.9205017089844	1218.271728515625	1170.763916015625	-61.24849319458008	1486.591186523438	1159.16845703125	120.0093078613281	1402.737915039062	1161.578491210938	-118.2075119018555	1347.87353515625	1238.233764648438	-82.42427825927734	1445.292724609375	1058.84716796875	21.09998893737793	1448.437255859375	985.3312377929688	8.49766731262207	1317.278930664062	914.1099243164062	31.61192512512207	1103.666259765625	903.9949951171875	-29.26287841796875	1090.029052734375	993.2403564453125	103.5125198364258	852.8941650390625	949.0571899414062	44.66030120849609	855.0697021484375	889.0340576171875	44.67575073242188	995.8145751953125	891.5553588867188	87.29778289794922	667.1586303710938	952.576904296875	67.03056335449219	770.0369873046875	885.5086669921875	114.5354385375977	768.2058715820312	938.4664916992188	5.030267715454102	1455.916870117188	1335.763427734375	-4.545130252838135	1386.728149414062	1399.75244140625	-29.72415161132812	1122.1318359375	1430.580078125	-9.20668888092041	1097.878295898438	1336.346923828125	97.07017517089844	862.1840209960938	1418.422241210938	26.44086074829102	858.6071166992188	1468.630859375	-19.49853324890137	1046.16162109375	1441.451782226562	61.44387435913086	691.9998779296875	1397.517456054688	111.5468521118164	757.9012451171875	1428.393798828125	52.66278839111328	764.4434204101562	1480.279663085938	-8.513595581054688	1678.7099609375	1091.42919921875	150.5831604003906	1691.551147460938	1236.963989257812	167.8364105224609	1697.0947265625	1111.887329101562	-19.22893714904785	1664.913696289062	1228.19677734375	-14.11282157897949	966.745361328125	1002.996032714844	-13.35210037231445	967.860107421875	1347.2158203125	109.9876403808594	981.7924194335938	1315.546630859375	102.1630020141602	972.5684814453125	1045.2578125	15.70889663696289	500.8002014160156	1037.3408203125	-4.842979907989502	644.3672485351562	1005.490478515625	-75.12511444091797	51.7462043762207	1020.295837402344	-42.2711296081543	270.1805419921875	1013.859741210938	129.9817199707031	43.94426345825195	1005.753601074219	85.83737182617188	42.09864044189453	1063.596557617188	22.8427562713623	43.19775772094727	971.6348266601562	-120.5389709472656	47.74435043334961	1100.05029296875	37.46114730834961	518.6259155273438	1327.32568359375	61.76333236694336	790.5449829101562	1351.281127929688	-42.4366569519043	44.52006149291992	1333.475708007812	13.65448379516602	401.3987426757812	1337.029907226562	173.3778228759766	42.34659957885742	1287.621215820312	110.3088607788086	47.36922073364258	1251.02734375	83.48956298828125	47.45583343505859	1345.41650390625	-91.25736236572266	45.91512680053711	1277.208618164062	
4	0.03	-83.22917938232422	1039.801391601562	1273.613891601562	-107.5967712402344	1036.04296875	1100.191772460938	-90.31083679199219	1084.454711914062	1179.003662109375	152.9409942626953	1288.618286132812	1165.207641601562	-113.6756973266602	1218.448974609375	1170.640258789062	-60.71828842163086	1486.711791992188	1159.070556640625	120.3972091674805	1402.644653320312	1161.511840820312	-117.8554916381836	1348.007202148438	1238.09326171875	-81.91012573242188	1445.437744140625	1058.83251953125	21.54567337036133	1448.455688476562	985.2086181640625	8.257269859313965	1317.432983398438	913.8252563476562	29.69144248962402	1103.92724609375	903.2296142578125	-30.74203681945801	1090.414672851562	992.9443359375	98.47995758056641	851.8780517578125	945.6746826171875	39.40983200073242	855.691650390625	885.912353515625	41.32326507568359	996.235595703125	889.901123046875	78.574951171875	666.3170776367188	947.1243286132812	60.23804473876953	770.3601684570312	881.3155517578125	107.8310394287109	766.9869384765625	934.1497192382812	5.383176803588867	1455.96044921875	1335.6845703125	-4.398270130157471	1386.876342773438	1399.705200195312	-30.61606597900391	1122.446533203125	1430.59228515625	-10.01100063323975	1098.036743164062	1336.424438476562	94.76404571533203	861.902587890625	1419.236206054688	23.90623474121094	858.8133544921875	1469.1767578125	-20.80647277832031	1046.561767578125	1441.53955078125	58.59003448486328	691.0348510742188	1399.026733398438	108.6159515380859	757.6259765625	1429.448852539062	49.66035079956055	764.6163940429688	1481.121948242188	-8.103861808776855	1678.618530273438	1091.28173828125	151.1923370361328	1691.547973632812	1236.674682617188	168.2526397705078	1697.067993164062	1111.620361328125	-18.59442710876465	1664.921508789062	1228.176635742188	-13.91424369812012	966.7423706054688	1002.920043945312	-13.1807804107666	967.9483032226562	1347.086181640625	110.1598739624023	981.7501831054688	1315.477905273438	102.387092590332	972.4854736328125	1045.1826171875	15.74307346343994	500.7756652832031	1037.3095703125	-4.717459201812744	644.3405151367188	1005.432067871094	-75.12950134277344	51.74094009399414	1020.294250488281	-42.26657104492188	270.1754760742188	1013.837524414062	129.9847869873047	43.94057846069336	1005.749633789062	85.83261108398438	42.0930061340332	1063.591430664062	22.84217071533203	43.19728851318359	971.63037109375	-120.5347213745117	47.74625015258789	1100.052734375	37.48374176025391	518.6255493164062	1327.263427734375	61.86309432983398	790.548828125	1351.16943359375	-42.43622589111328	44.52364730834961	1333.477905273438	13.69629287719727	401.4158020019531	1336.981201171875	173.3840789794922	42.34664916992188	1287.62548828125	110.3073654174805	47.36138153076172	1251.0234375	83.48982238769531	47.46008682250977	1345.411865234375	-91.25906372070312	45.92203903198242	1277.196166992188	
